<?xml version="1.0" standalone="no"?>
<!DOCTYPE svg PUBLIC "-//W3C//DTD SVG 20010904//EN"
 "http://www.w3.org/TR/2001/REC-SVG-20010904/DTD/svg10.dtd">
<svg version="1.0" xmlns="http://www.w3.org/2000/svg"
 width="225.000000pt" height="225.000000pt" viewBox="0 0 225.000000 225.000000"
 preserveAspectRatio="xMidYMid meet">
<metadata>
Created by potrace 1.11, written by Peter Selinger 2001-2013
</metadata>
<g transform="translate(0.000000,225.000000) scale(0.100000,-0.100000)"
fill="#000000" stroke="none">
<path d="M1033 2093 c-20 -7 -15 -23 7 -23 11 0 20 4 20 9 0 13 -12 19 -27 14z"/>
<path d="M1378 2093 c12 -2 30 -2 40 0 9 3 -1 5 -23 4 -22 0 -30 -2 -17 -4z"/>
<path d="M1930 2064 c-27 -7 -104 -13 -190 -13 -111 -1 -141 -4 -132 -13 14
-14 152 -17 252 -6 52 6 60 5 40 -4 -15 -6 -90 -11 -187 -12 -88 -1 -159 -4
-157 -8 2 -3 -4 -9 -13 -12 -10 -3 63 -4 162 -2 121 2 170 0 150 -6 -16 -5
-100 -11 -185 -12 -215 -4 -210 -3 -204 -21 6 -14 -12 -21 -39 -16 -5 1 -6 -3
-2 -9 4 -6 -6 -10 -25 -10 -18 0 -29 -4 -25 -10 3 -5 -3 -10 -14 -10 -12 0
-21 -5 -21 -11 0 -7 -12 -9 -32 -6 l-33 6 30 -14 c17 -8 46 -21 65 -30 34 -14
34 -15 5 -9 -16 3 -43 12 -59 20 -34 17 -46 17 -81 4 -25 -9 -25 -11 -9 -35 9
-14 26 -25 38 -25 18 0 16 3 -12 21 -48 31 -33 34 19 4 24 -13 53 -25 64 -24
12 0 -1 11 -35 29 -30 16 -51 29 -47 30 4 0 26 -9 48 -20 35 -18 51 -20 125
-14 46 4 87 11 90 15 3 5 22 8 42 8 l37 -1 -38 -8 c-22 -4 -51 -20 -68 -36
-25 -25 -27 -33 -20 -59 l9 -30 1 32 c1 17 5 34 10 37 4 3 6 -6 3 -21 -3 -18
-1 -24 7 -19 6 4 11 19 11 34 0 21 2 24 10 12 6 -9 10 -10 10 -3 0 18 36 26
60 13 21 -11 27 -35 10 -45 -5 -3 -19 -1 -30 5 -17 9 -20 8 -20 -8 0 -27 19
-40 68 -48 39 -6 41 -8 27 -24 -19 -21 -19 -31 0 -24 8 4 23 3 32 0 15 -6 15
-8 3 -17 -10 -7 -11 -9 -2 -7 21 5 17 22 -8 34 -13 7 -18 14 -11 18 19 12 12
26 -11 26 -20 1 -21 2 -6 11 13 7 26 5 49 -6 21 -11 43 -14 69 -10 l38 6 -24
24 c-25 25 -32 59 -14 70 15 9 12 51 -5 65 -9 7 -16 11 -18 9 -1 -2 -7 -13
-13 -24 -14 -25 -55 -31 -89 -13 l-26 14 23 10 c13 6 43 20 68 32 25 11 64 24
88 27 40 6 62 20 119 73 13 12 27 22 31 23 4 0 17 13 30 30 26 32 26 32 -38
13z m-102 -105 c-26 -14 -225 -22 -293 -10 -54 9 -49 10 50 6 61 -3 139 -1
175 4 36 5 70 9 75 9 6 1 2 -3 -7 -9z m-119 -45 c8 -7 -214 -2 -244 6 -16 4
31 5 105 2 74 -3 137 -6 139 -8z m-174 -25 c44 -6 82 -13 84 -15 14 -14 -194
13 -219 28 -10 6 -4 7 20 4 19 -3 71 -11 115 -17z m-90 -24 c51 -11 55 -14 24
-14 -39 -1 -98 16 -114 32 -7 7 -3 8 10 3 11 -4 47 -14 80 -21z m232 -82 c21
-21 28 -29 14 -17 -14 11 -37 28 -51 37 -13 10 -20 17 -14 17 7 0 29 -17 51
-37z"/>
<path d="M317 2024 c87 -82 103 -93 159 -104 53 -11 67 -23 40 -33 -7 -3 -19
0 -25 6 -10 9 -16 7 -27 -7 -20 -28 -17 -52 7 -70 14 -9 18 -19 13 -28 -6 -10
-3 -9 10 1 16 14 16 15 -8 28 -27 14 -33 37 -16 63 7 11 12 12 21 3 8 -8 18
-9 30 -3 12 7 31 4 64 -10 26 -11 54 -20 63 -20 13 0 12 -4 -6 -23 -20 -21
-27 -67 -10 -67 5 0 6 10 3 23 -8 28 21 60 31 34 7 -18 -16 -71 -50 -116 -28
-37 -35 -102 -15 -131 8 -12 9 -11 5 5 -3 11 1 38 8 59 10 30 15 35 18 20 4
-16 7 -14 27 16 13 19 21 27 17 18 -3 -10 -1 -18 4 -18 6 0 10 5 10 11 0 5 4
8 9 5 5 -4 7 4 4 16 -4 19 -3 20 6 8 7 -10 11 -11 11 -2 0 6 9 12 20 12 24 0
55 -44 44 -62 -5 -8 1 -7 16 3 19 13 25 26 25 52 0 20 6 42 13 48 6 7 12 22
12 32 0 18 5 19 51 13 42 -6 57 -3 86 14 45 27 55 19 11 -9 -28 -18 -30 -21
-12 -21 12 0 27 7 34 15 18 21 24 11 10 -15 -10 -18 -9 -21 2 -18 7 3 13 19
14 36 1 25 -4 33 -27 43 -31 12 -49 10 -118 -16 -24 -8 -45 -14 -47 -12 -3 2
17 12 43 22 62 23 75 35 37 35 -22 0 -26 3 -14 10 12 8 9 10 -13 10 -19 0 -26
4 -22 13 4 6 1 5 -7 -4 -15 -19 -122 -39 -194 -38 -39 1 -30 4 46 15 52 7 104
13 115 14 19 1 19 1 2 14 -14 11 -15 15 -5 19 17 7 -31 9 -212 8 -80 -1 -160
2 -178 7 -18 4 50 6 151 5 101 0 190 3 198 8 10 6 2 9 -24 9 -23 0 -36 4 -32
10 8 14 -8 13 -22 -1 -15 -15 -298 -6 -333 10 -25 11 -25 11 5 6 17 -2 95 -8
174 -11 116 -6 143 -5 136 5 -4 8 -2 17 6 22 9 6 -1 7 -26 2 -52 -10 -269 -5
-319 8 -52 14 -42 19 19 9 28 -5 96 -9 153 -9 80 -1 107 2 119 14 14 14 5 15
-88 9 -94 -6 -177 1 -274 22 -29 6 -28 4 22 -42z m491 -105 c-10 -5 -73 -12
-140 -14 l-123 -4 95 9 c52 5 106 11 120 13 14 2 34 5 45 5 18 1 18 1 3 -9z
m64 -55 c-18 -8 -54 -17 -80 -19 -45 -5 -44 -4 18 14 79 22 107 25 62 5z m98
-34 c-19 -11 -42 -19 -50 -19 -8 0 3 8 25 18 52 25 70 26 25 1z m-163 -11 c30
0 34 -2 18 -9 -21 -9 -85 -13 -85 -6 0 2 -3 12 -7 21 -5 15 -3 16 15 6 11 -6
38 -11 59 -12z m-34 -46 c-7 -2 -19 -2 -25 0 -7 3 -2 5 12 5 14 0 19 -2 13 -5z
m-44 -7 c-2 -2 -15 -9 -29 -15 -24 -11 -24 -11 -6 3 16 13 49 24 35 12z m72
-43 c13 -17 13 -17 -6 -3 -11 8 -22 16 -24 17 -2 2 0 3 6 3 6 0 17 -8 24 -17z"/>
<path d="M608 2063 c6 -2 18 -2 25 0 6 3 1 5 -13 5 -14 0 -19 -2 -12 -5z"/>
<path d="M1360 2066 c0 -2 9 -6 20 -9 11 -3 18 -1 14 4 -5 9 -34 13 -34 5z"/>
<path d="M1678 2063 c12 -2 32 -2 45 0 12 2 2 4 -23 4 -25 0 -35 -2 -22 -4z"/>
<path d="M990 2056 c0 -2 8 -10 18 -17 15 -13 16 -12 3 4 -13 16 -21 21 -21
13z"/>
<path d="M1040 2050 c0 -5 5 -10 11 -10 5 0 7 5 4 10 -3 6 -8 10 -11 10 -2 0
-4 -4 -4 -10z"/>
<path d="M1330 2036 c0 -2 7 -7 16 -10 8 -3 12 -2 9 4 -6 10 -25 14 -25 6z"/>
<path d="M828 2013 c7 -3 16 -2 19 1 4 3 -2 6 -13 5 -11 0 -14 -3 -6 -6z"/>
<path d="M989 2006 c7 -8 8 -16 4 -18 -4 -3 -3 -4 3 -2 6 1 18 -3 25 -9 8 -7
3 0 -10 16 -25 27 -43 39 -22 13z"/>
<path d="M935 2001 c-3 -5 0 -13 6 -17 7 -4 9 -3 5 4 -3 5 0 13 6 15 9 4 10 6
1 6 -6 1 -14 -3 -18 -8z"/>
<path d="M1239 1993 c-13 -16 -12 -17 4 -4 9 7 17 15 17 17 0 8 -8 3 -21 -13z"/>
<path d="M1270 1983 c5 -2 8 -9 4 -14 -3 -5 0 -9 6 -9 15 0 7 23 -8 26 -7 1
-8 0 -2 -3z"/>
<path d="M1030 1960 c-9 -6 -10 -10 -3 -10 6 0 15 5 18 10 8 12 4 12 -15 0z"/>
<path d="M1156 1922 c-3 -5 1 -9 9 -9 8 0 12 4 9 9 -3 4 -7 8 -9 8 -2 0 -6 -4
-9 -8z"/>
<path d="M1000 1911 c0 -5 9 -7 20 -4 11 3 20 7 20 9 0 2 -9 4 -20 4 -11 0
-20 -4 -20 -9z"/>
<path d="M1031 1895 c0 -5 3 -16 8 -23 7 -11 9 -10 14 3 4 9 3 14 -2 10 -5 -3
-12 1 -14 7 -3 7 -6 9 -6 3z"/>
<path d="M569 1823 c-13 -16 -12 -17 4 -4 9 7 17 15 17 17 0 8 -8 3 -21 -13z"/>
<path d="M450 1785 c0 -18 23 -35 45 -34 19 1 19 1 0 6 -11 3 -25 13 -32 22
-7 9 -13 11 -13 6z"/>
<path d="M540 1764 c-16 -10 -18 -13 -5 -8 11 4 31 7 44 7 18 -1 20 1 10 8
-18 11 -19 11 -49 -7z"/>
<path d="M1441 1741 c-11 -19 -11 -25 0 -32 15 -9 23 9 17 39 -3 14 -6 13 -17
-7z"/>
<path d="M1520 1750 c0 -8 13 -34 29 -58 l28 -43 17 26 c9 14 12 25 7 25 -5 0
-12 -8 -16 -17 -6 -17 -8 -17 -22 2 -8 11 -21 34 -29 50 -7 17 -13 23 -14 15z"/>
<path d="M1137 1713 c-4 -3 -7 -13 -7 -21 0 -9 -8 -24 -17 -35 -17 -19 -17
-20 2 -10 11 5 36 9 56 8 21 0 36 5 36 11 0 7 -6 10 -13 7 -8 -3 -19 6 -25 21
-12 26 -20 31 -32 19z"/>
<path d="M1200 1700 c-13 -8 -12 -10 3 -10 9 0 17 5 17 10 0 12 -1 12 -20 0z"/>
<path d="M721 1664 c0 -11 3 -14 6 -6 3 7 2 16 -1 19 -3 4 -6 -2 -5 -13z"/>
<path d="M861 1644 c-26 -22 -31 -32 -29 -67 l1 -42 4 41 c3 26 12 49 24 60
20 18 20 18 14 -8 -7 -29 10 -47 28 -29 9 9 8 11 -5 6 -23 -9 -24 12 -2 43 21
30 3 28 -35 -4z"/>
<path d="M1353 1655 c-3 -9 -3 -19 1 -22 3 -4 6 1 6 10 0 8 6 18 13 20 9 4 9
6 -1 6 -7 1 -15 -6 -19 -14z"/>
<path d="M653 1644 c-3 -8 -1 -20 4 -25 7 -7 11 -2 11 15 0 29 -6 33 -15 10z"/>
<path d="M730 1633 c0 -13 70 -83 83 -83 5 0 -2 9 -16 20 -15 12 -35 32 -47
47 -11 14 -20 21 -20 16z"/>
<path d="M929 1611 c7 -5 10 -14 7 -20 -4 -6 -5 -11 -2 -11 3 0 10 9 16 20 9
17 8 20 -12 20 -17 0 -19 -3 -9 -9z"/>
<path d="M1225 1611 c-6 -6 -41 -11 -78 -12 -68 -2 -79 -8 -84 -42 -2 -11 1
-16 8 -11 7 4 10 1 7 -7 -3 -8 -11 -13 -19 -12 -8 1 -27 5 -44 8 l-30 5 31
-10 c21 -7 31 -16 30 -27 -2 -24 -15 -32 -56 -34 -21 -1 -27 -3 -15 -6 11 -3
24 -9 29 -13 9 -9 53 30 48 43 -1 5 2 6 7 2 6 -3 19 3 31 15 27 27 83 27 110
-2 30 -32 26 -72 -11 -106 -36 -33 -32 -52 12 -52 19 0 29 -5 29 -14 0 -8 4
-18 10 -21 6 -3 7 1 4 10 -5 12 4 9 32 -10 27 -19 49 -25 75 -24 22 2 46 -4
60 -13 23 -17 22 -17 -41 -17 -63 -1 -90 7 -93 25 -1 5 -6 8 -10 6 -5 -1 -6 2
-2 8 11 18 -109 -14 -184 -48 -34 -15 -50 -18 -64 -10 -18 9 -18 11 4 34 12
13 27 21 33 17 6 -3 8 -2 3 2 -4 5 1 18 10 29 10 11 -5 1 -34 -23 -53 -44 -85
-50 -91 -18 -3 12 9 23 40 37 24 11 36 20 28 20 -24 0 -80 -38 -80 -55 0 -8
-6 -15 -12 -15 -7 0 -24 -3 -37 -7 -17 -4 -22 -3 -17 6 4 6 12 9 17 6 5 -4 9
-1 9 4 0 15 -12 14 -40 -6 -42 -30 -120 -125 -120 -147 0 -6 13 10 28 35 62
96 60 104 64 -249 l3 -319 43 -85 c25 -52 63 -109 95 -142 34 -36 47 -56 37
-57 -8 0 0 -5 18 -10 46 -14 30 -29 -29 -29 -61 0 -89 -13 -89 -43 0 -18 -2
-19 -10 -7 -8 13 -10 12 -10 -2 0 -10 7 -18 15 -18 8 0 15 9 15 20 0 16 4 18
23 11 26 -10 149 -24 130 -15 -11 5 -19 64 -9 64 2 0 24 -11 47 -25 24 -14 51
-25 60 -25 9 0 43 18 77 39 l60 40 7 -39 c4 -22 4 -43 1 -48 -7 -11 96 3 123
17 17 10 21 9 21 -4 0 -12 11 -15 48 -13 l47 1 -42 4 c-24 2 -43 9 -43 14 0 6
5 7 10 4 6 -4 10 6 11 22 1 27 1 27 8 4 9 -32 28 -38 36 -12 9 30 -2 41 -40
41 -29 0 -33 -3 -28 -22 5 -19 3 -21 -8 -11 -7 8 -39 13 -76 13 -61 0 -63 1
-61 26 2 14 10 30 20 35 9 5 31 29 49 54 33 46 55 55 25 11 -9 -14 -16 -37
-16 -51 0 -19 -5 -25 -22 -26 -13 -1 11 -6 52 -10 102 -12 316 8 364 33 13 7
21 6 27 -3 6 -10 9 -8 9 9 0 32 -24 37 -97 20 l-64 -16 20 22 c29 31 31 65 5
90 -20 20 -41 22 -25 2 12 -14 10 -51 -4 -63 -4 -5 -5 -3 -2 3 4 7 -2 9 -20 6
l-26 -5 29 -13 c28 -12 28 -13 7 -19 -13 -4 -23 -12 -23 -17 0 -6 -21 -8 -49
-6 -27 1 -47 0 -44 -4 2 -5 -8 -8 -24 -8 -29 0 -103 18 -103 25 0 2 9 20 21
39 11 19 18 40 14 45 -3 6 1 24 10 41 35 68 45 172 45 470 l0 287 -42 17 c-24
9 -54 31 -68 48 -26 34 -24 34 35 13 17 -6 18 -5 5 5 -13 10 -12 11 5 7 11 -3
29 -8 40 -12 l20 -8 -20 16 c-19 15 -19 16 -2 23 10 3 30 1 44 -5 14 -6 28
-10 30 -7 2 2 -5 7 -16 11 -12 3 -19 10 -16 15 3 5 -3 13 -12 19 -17 10 -17
10 0 11 16 0 83 -30 169 -76 30 -16 133 -20 108 -4 -9 6 -10 10 -3 10 6 0 24
5 40 11 22 8 24 12 13 19 -11 7 -11 10 -2 10 18 0 52 60 52 93 0 19 5 27 18
27 29 0 45 -16 52 -56 8 -38 8 -38 9 -7 2 57 -82 133 -146 133 -27 0 -70 -22
-85 -44 -12 -16 -9 -56 3 -56 5 0 8 -4 5 -9 -3 -4 0 -16 8 -26 10 -14 17 -15
32 -7 11 5 33 8 49 4 27 -5 29 -4 16 11 -16 20 -8 47 14 47 31 0 5 -90 -30
-104 -9 -3 -13 -10 -10 -16 8 -13 -1 -13 -27 1 -14 8 -23 8 -31 0 -19 -19 -54
-12 -124 22 -73 34 -86 45 -75 62 4 6 0 3 -10 -7 -21 -24 -28 -23 -28 5 0 12
-4 17 -8 11 -5 -7 -22 -7 -52 -1 l-44 9 34 28 c31 25 33 29 17 36 -10 4 -42
-1 -72 -11 -47 -16 -60 -17 -110 -6 -46 10 -54 15 -44 27 6 8 8 25 5 40 -5 17
-3 23 4 19 5 -3 10 -1 10 4 0 14 -13 14 -25 2z m-105 -60 c0 -12 -20 -25 -27
-18 -7 7 6 27 18 27 5 0 9 -4 9 -9z m45 -1 c-3 -5 -13 -10 -21 -10 -8 0 -12 5
-9 10 3 6 13 10 21 10 8 0 12 -4 9 -10z m45 -5 c-7 -8 -16 -12 -21 -9 -13 8
-1 24 18 24 13 0 13 -3 3 -15z m609 -19 c-2 -2 -15 -9 -29 -15 -24 -11 -24
-11 -6 3 16 13 49 24 35 12z m-504 -36 c3 -6 -1 -7 -9 -4 -18 7 -21 14 -7 14
6 0 13 -4 16 -10z m498 -5 c-3 -9 -8 -14 -10 -11 -3 3 -2 9 2 15 9 16 15 13 8
-4z m-573 -58 c0 -7 -7 -22 -15 -33 -13 -17 -13 -16 -3 14 13 34 18 40 18 19z
m61 -43 c5 -15 8 -29 5 -31 -2 -2 -8 10 -14 26 -13 38 -5 41 9 5z m-301 -149
c16 -8 37 -12 47 -9 15 5 16 4 3 -5 -9 -6 -10 -11 -3 -11 6 0 20 -3 30 -6 10
-3 14 -2 8 3 -15 12 -16 29 -2 33 7 1 96 4 200 7 l187 4 0 -121 0 -120 -147 2
c-104 1 -121 3 -59 5 65 3 93 8 105 20 20 20 23 70 5 77 -20 8 -28 -12 -12
-31 9 -12 9 -15 1 -9 -9 5 -13 -1 -13 -18 0 -26 -1 -26 -83 -26 -51 0 -88 -5
-95 -12 -9 -9 -15 -9 -24 0 -8 8 -44 11 -107 10 l-96 -2 100 -6 c96 -6 93 -6
-57 -8 l-158 -2 0 120 0 120 70 0 c43 0 82 -6 100 -15z m475 -425 c0 -169 -3
-192 -25 -260 -13 -41 -23 -84 -22 -95 1 -13 -1 -16 -6 -8 -6 9 -19 -2 -44
-36 -38 -50 -127 -125 -185 -155 -32 -16 -34 -16 -85 10 -75 38 -185 153 -228
239 l-35 70 -5 208 c-3 115 -3 211 -1 213 3 2 147 3 320 2 l316 -3 0 -185z
m38 -545 c-7 -21 -13 -19 -13 6 0 11 4 18 10 14 5 -3 7 -12 3 -20z"/>
<path d="M1138 1223 c-9 -2 -19 -11 -22 -20 -5 -12 -1 -14 19 -11 23 5 25 3
25 -34 0 -38 -20 -47 -20 -10 -1 15 -2 14 -12 -2 -9 -16 -7 -22 10 -34 13 -9
22 -25 22 -40 0 -24 0 -25 -20 -7 -29 26 -35 13 -6 -14 l24 -23 21 21 c26 26
27 32 4 24 -16 -6 -16 -4 -5 9 11 13 11 20 1 36 -10 16 -10 23 4 37 9 9 17 25
17 35 0 10 8 21 18 23 11 3 7 5 -10 6 -14 0 -32 3 -40 5 -7 2 -20 2 -30 -1z"/>
<path d="M1286 1185 c10 -8 27 -15 37 -15 11 0 17 -8 17 -24 0 -19 4 -23 20
-19 23 6 27 33 5 33 -8 0 -15 5 -15 10 0 6 -11 10 -24 10 -14 0 -28 5 -31 10
-3 6 -11 10 -18 10 -6 0 -2 -7 9 -15z"/>
<path d="M988 1183 c-18 -3 -28 -11 -28 -21 0 -13 -2 -14 -9 -4 -6 10 -10 10
-20 -2 -8 -10 -9 -16 -1 -21 6 -3 7 -12 3 -18 -12 -19 -12 -67 0 -74 6 -4 7
-1 2 8 -8 12 -6 12 8 0 15 -12 17 -10 17 23 0 20 -4 36 -10 36 -5 0 -7 7 -4
15 4 8 10 12 15 9 5 -3 9 4 9 15 0 13 7 21 18 21 9 0 24 5 32 10 8 5 11 9 5 8
-5 0 -22 -3 -37 -5z m-40 -108 c-3 -3 -9 2 -12 12 -6 14 -5 15 5 6 7 -7 10
-15 7 -18z"/>
<path d="M1220 1145 c0 -25 5 -45 10 -45 6 0 10 20 10 45 0 25 -4 45 -10 45
-5 0 -10 -20 -10 -45z"/>
<path d="M1040 1143 c0 -17 -3 -39 -7 -49 -4 -12 -3 -15 5 -10 7 4 12 17 12
29 0 20 0 20 14 1 25 -34 25 -10 0 26 l-24 34 0 -31z"/>
<path d="M981 1144 c0 -11 3 -14 6 -6 3 7 2 16 -1 19 -3 4 -6 -2 -5 -13z"/>
<path d="M1310 1133 c0 -18 2 -33 4 -33 9 0 13 39 5 51 -6 10 -9 4 -9 -18z"/>
<path d="M980 1090 c-6 -11 -7 -20 -2 -20 6 0 12 9 15 20 3 11 3 20 1 20 -2 0
-8 -9 -14 -20z"/>
<path d="M1310 1082 c0 -5 7 -13 16 -16 10 -4 14 -1 12 6 -5 15 -28 23 -28 10z"/>
<path d="M1005 951 c-3 -5 -2 -12 3 -15 5 -3 9 1 9 9 0 17 -3 19 -12 6z"/>
<path d="M1035 950 c-3 -5 -1 -10 4 -10 6 0 11 5 11 10 0 6 -2 10 -4 10 -3 0
-8 -4 -11 -10z"/>
<path d="M1266 935 c12 -9 14 -14 6 -15 -7 0 -10 -5 -6 -11 4 -8 10 -6 17 6 7
12 5 20 -4 26 -23 15 -34 10 -13 -6z"/>
<path d="M1435 922 c-12 -8 -17 -44 -5 -37 6 4 22 45 17 45 -1 0 -6 -4 -12 -8z"/>
<path d="M1070 900 c6 -11 13 -20 16 -20 2 0 0 9 -6 20 -6 11 -13 20 -16 20
-2 0 0 -9 6 -20z"/>
<path d="M1107 899 c7 -7 15 -10 18 -7 3 3 -2 9 -12 12 -14 6 -15 5 -6 -5z"/>
<path d="M1164 892 c5 -8 -5 -13 -31 -14 l-38 -1 34 -4 c36 -5 61 9 40 22 -8
5 -10 4 -5 -3z"/>
<path d="M1235 871 c-4 -14 -15 -21 -31 -21 -13 0 -24 -4 -24 -9 0 -6 -9 -8
-20 -6 -11 2 -20 0 -20 -6 0 -12 12 -11 60 3 36 12 61 41 47 55 -3 2 -8 -5
-12 -16z"/>
<path d="M1290 886 c0 -2 7 -9 15 -16 9 -7 15 -8 15 -2 0 5 -7 12 -15 16 -8 3
-15 4 -15 2z"/>
<path d="M980 856 c0 -2 7 -7 16 -10 8 -3 12 -2 9 4 -6 10 -25 14 -25 6z"/>
<path d="M1035 850 c16 -28 59 -69 67 -64 13 8 9 24 -6 24 -7 0 -26 12 -41 28
-16 15 -25 20 -20 12z"/>
<path d="M1300 802 l5 -47 3 39 c2 21 0 42 -5 47 -4 4 -6 -13 -3 -39z"/>
<path d="M976 822 c-3 -5 1 -9 9 -9 8 0 12 4 9 9 -3 4 -7 8 -9 8 -2 0 -6 -4
-9 -8z"/>
<path d="M1366 813 c-6 -14 -5 -15 5 -6 7 7 10 15 7 18 -3 3 -9 -2 -12 -12z"/>
<path d="M1010 812 c0 -7 -10 -13 -22 -13 -21 -1 -21 -2 -3 -6 11 -3 32 -14
48 -25 15 -11 27 -15 27 -9 0 6 -5 11 -11 11 -5 0 -8 4 -5 9 3 4 -3 16 -14 26
-12 10 -20 13 -20 7z m25 -22 c3 -5 2 -10 -4 -10 -5 0 -13 5 -16 10 -3 6 -2
10 4 10 5 0 13 -4 16 -10z"/>
<path d="M1215 765 c-3 -8 -7 -22 -10 -31 -3 -11 -11 -14 -23 -9 -13 5 -14 3
-5 -6 19 -19 5 -41 -18 -28 -20 10 -39 5 -39 -12 0 -13 63 -4 68 10 2 6 9 8
15 4 6 -4 8 0 4 10 -3 9 -2 19 2 22 5 2 11 16 13 30 6 27 0 34 -7 10z"/>
<path d="M1170 760 c0 -5 5 -10 11 -10 5 0 7 5 4 10 -3 6 -8 10 -11 10 -2 0
-4 -4 -4 -10z"/>
<path d="M1260 750 c0 -5 5 -10 11 -10 5 0 7 5 4 10 -3 6 -8 10 -11 10 -2 0
-4 -4 -4 -10z"/>
<path d="M1141 734 c0 -11 3 -14 6 -6 3 7 2 16 -1 19 -3 4 -6 -2 -5 -13z"/>
<path d="M1021 718 c-1 -10 8 -22 19 -28 11 -6 20 -16 20 -23 0 -7 13 -18 29
-25 42 -19 104 -84 89 -93 -7 -5 -16 -3 -21 4 -6 8 -7 6 -3 -5 4 -14 0 -18
-19 -18 -13 0 -27 -5 -30 -10 -4 -7 2 -9 19 -4 21 5 26 2 27 -12 0 -14 2 -15
6 -4 3 8 14 25 25 36 17 19 18 23 4 37 -9 9 -16 19 -16 23 0 3 -9 15 -21 25
-13 11 -18 23 -13 31 6 10 4 10 -9 0 -21 -17 -40 -6 -32 19 4 10 2 19 -4 19
-5 0 -12 -8 -14 -17 -3 -11 -5 -6 -7 12 -1 17 -4 24 -7 17 -2 -6 -9 -9 -14 -6
-6 3 -5 12 3 22 11 15 11 15 -4 4 -13 -10 -17 -10 -21 0 -4 8 -6 7 -6 -4z"/>
<path d="M1233 693 c2 -38 1 -41 -18 -32 -20 10 -20 10 -1 -5 11 -9 26 -16 34
-16 7 0 11 -4 8 -9 -3 -4 1 -17 9 -27 13 -18 14 -18 8 4 -4 15 0 27 12 36 10
7 15 20 12 32 -4 16 -5 15 -6 -4 -1 -14 -6 -22 -13 -19 -8 2 -12 18 -11 38 1
19 -1 26 -3 17 -7 -25 -22 -22 -28 5 -2 12 -4 3 -3 -20z"/>
<path d="M1360 688 c0 -23 3 -29 9 -19 8 12 4 51 -5 51 -2 0 -4 -15 -4 -32z"/>
<path d="M1372 580 c-7 -11 -8 -20 -3 -20 9 0 24 30 18 36 -1 2 -8 -6 -15 -16z"/>
<path d="M966 565 c-11 -8 -15 -15 -9 -15 6 0 16 7 23 15 16 19 11 19 -14 0z"/>
<path d="M1083 573 c9 -2 23 -2 30 0 6 3 -1 5 -18 5 -16 0 -22 -2 -12 -5z"/>
<path d="M1270 547 c0 -13 -5 -28 -12 -35 -16 -16 -19 -44 -5 -39 7 2 12 10
13 18 0 19 15 53 27 60 5 3 2 9 -7 12 -12 5 -16 0 -16 -16z"/>
<path d="M1014 538 c-4 -7 -4 -10 1 -6 4 4 15 2 24 -5 14 -11 14 -10 2 6 -16
20 -18 21 -27 5z"/>
<path d="M1051 494 c0 -11 3 -14 6 -6 3 7 2 16 -1 19 -3 4 -6 -2 -5 -13z"/>
<path d="M1275 501 c-3 -5 -1 -12 5 -16 5 -3 10 1 10 9 0 18 -6 21 -15 7z"/>
<path d="M1281 454 c0 -11 3 -14 6 -6 3 7 2 16 -1 19 -3 4 -6 -2 -5 -13z"/>
<path d="M1080 446 c-6 -8 -18 -12 -26 -9 -8 3 -14 -1 -14 -10 0 -10 -8 -13
-25 -9 -14 2 -22 9 -18 15 3 6 1 7 -5 3 -6 -4 -9 -12 -6 -19 6 -16 53 -14 63
2 5 7 10 11 12 10 2 -2 15 4 29 14 13 9 19 17 13 17 -6 0 -16 -6 -23 -14z"/>
<path d="M1150 446 c0 -2 7 -7 16 -10 8 -3 12 -2 9 4 -6 10 -25 14 -25 6z"/>
<path d="M1140 421 c0 -7 -5 -9 -12 -5 -7 5 -8 3 -3 -5 5 -9 10 -10 18 -2 6 6
8 14 4 18 -4 3 -7 1 -7 -6z"/>
<path d="M1206 416 c10 -8 21 -12 24 -10 5 6 -21 24 -34 24 -6 0 -1 -6 10 -14z"/>
<path d="M1100 390 c-8 -5 -12 -11 -9 -14 2 -3 11 -1 19 4 8 5 12 11 9 14 -2
3 -11 1 -19 -4z"/>
<path d="M1157 393 c-4 -3 -7 -13 -7 -21 0 -18 13 -7 16 13 2 17 1 18 -9 8z"/>
<path d="M1170 350 c-13 -8 -12 -10 3 -10 9 0 17 5 17 10 0 12 -1 12 -20 0z"/>
<path d="M1332 1608 c-7 -7 -12 -18 -12 -24 0 -15 28 -44 42 -44 6 0 0 9 -13
19 -21 17 -22 22 -11 40 14 24 12 27 -6 9z"/>
<path d="M1633 1563 c-13 -32 -27 -62 -30 -68 -4 -7 -2 -7 5 0 12 12 63 125
56 125 -3 0 -17 -26 -31 -57z"/>
<path d="M1551 1590 c14 -31 19 -36 19 -24 0 6 -7 19 -16 30 -14 18 -14 18 -3
-6z"/>
<path d="M1384 1574 c-19 -15 -19 -15 1 -6 11 5 27 12 35 15 13 5 13 6 -1 6
-8 1 -24 -6 -35 -15z"/>
<path d="M1459 1564 c13 -9 29 -31 37 -48 7 -17 13 -23 14 -14 0 20 -47 78
-63 78 -6 0 -1 -7 12 -16z"/>
<path d="M952 1554 c10 -10 20 -16 22 -13 3 3 -5 11 -17 18 -21 13 -21 12 -5
-5z"/>
<path d="M574 1537 c-11 -7 -38 -32 -60 -56 -70 -78 -75 -83 -90 -77 -8 3 -14
-1 -14 -8 0 -31 13 -46 40 -46 37 0 55 -22 41 -49 -16 -29 -14 -39 14 -66 13
-14 20 -25 16 -25 -5 0 -21 -17 -36 -37 l-28 -38 41 40 c45 42 51 55 27 55
-24 0 -39 43 -26 69 7 12 16 19 22 16 5 -4 12 1 15 10 4 10 14 15 25 12 11 -3
22 -1 25 4 3 5 -5 9 -16 9 -17 0 -20 4 -15 18 4 9 10 26 13 37 10 40 23 46 81
41 31 -3 52 -4 46 -1 -5 3 -41 8 -80 13 -54 6 -69 11 -66 22 2 8 4 21 4 28 0
7 7 10 16 7 8 -3 12 -3 8 1 -4 5 3 14 15 21 13 7 19 12 13 12 -5 0 -19 -5 -31
-12z"/>
<path d="M1157 1501 c-3 -14 -1 -18 9 -14 8 3 14 11 14 19 0 21 -17 17 -23 -5z"/>
<path d="M898 1473 c7 -3 16 -2 19 1 4 3 -2 6 -13 5 -11 0 -14 -3 -6 -6z"/>
<path d="M1574 1458 l-19 -23 23 19 c21 18 27 26 19 26 -2 0 -12 -10 -23 -22z"/>
<path d="M1073 1463 c9 -2 23 -2 30 0 6 3 -1 5 -18 5 -16 0 -22 -2 -12 -5z"/>
<path d="M978 1443 c7 -3 16 -2 19 1 4 3 -2 6 -13 5 -11 0 -14 -3 -6 -6z"/>
<path d="M704 1405 c-8 -43 0 -54 24 -32 9 9 29 20 42 26 14 5 18 10 9 10 -8
1 -24 -6 -35 -14 -29 -22 -36 -18 -29 15 4 17 4 30 1 30 -3 0 -8 -16 -12 -35z"/>
<path d="M920 1430 c-18 -12 -2 -12 25 0 13 6 15 9 5 9 -8 0 -22 -4 -30 -9z"/>
<path d="M1058 1411 c18 -33 32 -32 31 2 0 21 -1 21 -9 2 -8 -19 -9 -19 -9 3
-1 12 -7 22 -16 22 -12 0 -11 -5 3 -29z"/>
<path d="M1136 1413 c9 -38 14 -42 14 -10 0 14 -5 29 -10 32 -7 4 -8 -3 -4
-22z"/>
<path d="M1043 1391 c12 -22 23 -38 25 -36 5 5 -26 63 -37 69 -5 4 0 -12 12
-33z"/>
<path d="M823 1413 c15 -2 25 -9 22 -14 -3 -5 1 -6 9 -3 29 11 16 24 -21 23
-31 -2 -33 -3 -10 -6z"/>
<path d="M1930 1392 c0 -6 -15 -25 -32 -43 -21 -21 -25 -28 -12 -21 24 13 58
61 50 70 -3 3 -6 0 -6 -6z"/>
<path d="M740 1350 c-41 -21 -70 -39 -65 -39 6 0 44 18 85 39 41 21 71 39 65
39 -5 0 -44 -18 -85 -39z"/>
<path d="M824 1314 c-18 -14 -18 -15 4 -4 12 6 22 13 22 15 0 8 -5 6 -26 -11z"/>
<path d="M1530 1327 c0 -2 19 -17 43 -32 23 -16 37 -22 30 -14 -12 15 -73 53
-73 46z"/>
<path d="M569 1308 c15 -19 44 -22 76 -8 14 7 9 8 -18 4 -24 -4 -43 -2 -55 7
-15 13 -16 12 -3 -3z"/>
<path d="M1835 1313 c-15 -4 -10 -9 24 -22 48 -18 58 -34 24 -39 -25 -4 -26
-7 -12 -37 9 -19 9 -19 5 2 -3 16 2 23 21 28 31 7 25 26 -15 46 -17 9 -29 19
-25 23 3 3 4 5 2 5 -2 -1 -13 -4 -24 -6z"/>
<path d="M719 1243 c-13 -16 -12 -17 4 -4 9 7 17 15 17 17 0 8 -8 3 -21 -13z"/>
<path d="M734 1208 l-19 -23 23 19 c21 18 27 26 19 26 -2 0 -12 -10 -23 -22z"/>
<path d="M1520 1205 c13 -14 26 -25 28 -25 3 0 -5 11 -18 25 -13 14 -26 25
-28 25 -3 0 5 -11 18 -25z"/>
<path d="M1810 1170 c0 -11 2 -20 4 -20 2 0 6 9 9 20 3 11 1 20 -4 20 -5 0 -9
-9 -9 -20z"/>
<path d="M695 1159 c-4 -6 -5 -12 -2 -15 2 -3 7 2 10 11 7 17 1 20 -8 4z"/>
<path d="M423 1128 c-1 -11 1 -16 5 -12 4 5 11 12 15 15 5 3 2 9 -5 12 -9 3
-14 -3 -15 -15z"/>
<path d="M1571 1124 c0 -11 3 -14 6 -6 3 7 2 16 -1 19 -3 4 -6 -2 -5 -13z"/>
<path d="M1789 1108 c-1 -40 -6 -68 -13 -76 -3 -3 -6 3 -7 14 -1 15 -3 13 -9
-6 -7 -23 -8 -22 -10 10 -1 19 -5 44 -10 55 -4 12 -6 -5 -3 -41 5 -57 4 -63
-17 -74 -22 -12 -23 -11 -17 26 4 27 3 34 -3 24 -5 -8 -10 -27 -10 -42 0 -21
-6 -29 -26 -34 -32 -8 -52 9 -35 29 16 20 -10 30 -43 17 -31 -11 -46 -39 -46
-83 0 -19 -7 -40 -15 -47 -19 -16 -19 -39 1 -61 14 -16 14 -20 0 -48 -9 -16
-20 -58 -26 -93 -10 -65 -23 -125 -36 -167 -5 -18 -4 -23 7 -19 8 3 17 18 20
34 3 16 10 28 17 26 7 -1 12 3 12 9 0 6 19 34 42 62 24 29 44 54 45 56 1 2 9
-2 18 -9 19 -16 18 -17 45 47 19 44 25 51 48 50 22 -2 27 3 33 33 3 19 16 60
29 90 12 30 26 80 30 110 4 30 11 73 14 95 l6 40 -15 -35 -15 -35 5 32 c2 18
0 35 -5 38 -6 4 -10 -8 -11 -27z m-29 -141 c0 -2 -10 -12 -22 -23 l-23 -19 19
23 c18 21 26 27 26 19z m-55 -17 c-3 -5 -12 -10 -18 -10 -7 0 -6 4 3 10 19 12
23 12 15 0z m-90 -28 c-10 -2 -25 3 -33 12 -15 14 -13 15 17 3 23 -8 28 -13
16 -15z m-35 -206 c0 -2 -8 -10 -17 -17 -16 -13 -17 -12 -4 4 13 16 21 21 21
13z"/>
<path d="M682 1110 c0 -14 2 -19 5 -12 2 6 2 18 0 25 -3 6 -5 1 -5 -13z"/>
<path d="M456 1113 c-13 -3 -15 -7 -7 -12 8 -6 8 -17 -4 -44 -20 -48 -19 -82
4 -126 10 -20 24 -55 30 -78 13 -46 50 -81 117 -109 54 -22 69 -35 52 -45 -10
-7 -10 -9 -1 -9 7 0 10 -6 8 -12 -3 -7 0 -20 5 -28 8 -12 13 -13 30 -2 35 21
43 15 37 -27 -4 -31 -2 -38 9 -34 22 8 18 -61 -7 -108 -28 -55 -97 -129 -121
-129 -29 0 -35 30 -9 52 13 10 19 18 14 18 -13 0 -43 -34 -43 -48 0 -7 -12
-12 -26 -12 -14 0 -34 -5 -46 -11 -20 -11 -20 -11 3 -27 17 -12 60 -17 173
-23 83 -3 162 -5 176 -3 14 1 43 3 65 4 22 1 34 4 28 7 -7 2 -13 15 -13 27 0
12 -12 33 -27 47 -25 22 -26 22 -9 2 19 -23 19 -23 -7 -23 -19 0 -27 5 -28 18
0 10 -3 12 -6 4 -2 -6 -9 -10 -14 -7 -5 4 -6 -1 -3 -9 4 -9 1 -16 -6 -16 -8 0
-11 9 -8 25 3 14 1 28 -3 31 -5 3 -9 -9 -9 -25 0 -30 -1 -31 -46 -31 l-46 0
35 40 c52 57 80 116 73 154 -3 17 -11 69 -16 116 -9 79 -12 87 -45 118 l-36
33 37 34 c40 38 41 58 2 63 -19 2 -28 11 -35 35 -9 33 -45 49 -64 30 -6 -6 1
-9 18 -8 17 2 20 0 8 -3 l-20 -4 20 -8 c18 -6 17 -9 -15 -29 -19 -11 -40 -21
-46 -21 -12 0 -23 41 -25 89 -1 17 -4 11 -10 -18 -10 -53 -27 -76 -22 -29 3
24 2 29 -5 19 -9 -12 -14 -12 -35 2 -25 16 -26 16 -30 -6 -2 -12 -5 -3 -6 21
0 23 -6 42 -12 42 -7 0 -9 -12 -7 -32 5 -29 4 -30 -9 -12 -23 32 -26 62 -9
104 9 22 15 39 13 39 -1 -1 -11 -4 -21 -6z m101 -195 c-3 -8 -6 -5 -6 6 -1 11
2 17 5 13 3 -3 4 -12 1 -19z m50 0 c-3 -8 -6 -5 -6 6 -1 11 2 17 5 13 3 -3 4
-12 1 -19z m21 -35 c-10 -2 -26 -2 -35 0 -10 3 -2 5 17 5 19 0 27 -2 18 -5z
m142 -158 c13 -14 21 -25 18 -25 -2 0 -15 11 -28 25 -13 14 -21 25 -18 25 2 0
15 -11 28 -25z"/>
<path d="M1650 1099 c0 -53 -63 -75 -122 -45 -16 8 -28 11 -28 6 0 -11 57 -30
91 -30 18 0 36 10 53 31 14 17 26 25 26 18 0 -7 3 -10 6 -6 3 3 -1 16 -10 29
l-16 22 0 -25z"/>
<path d="M721 1103 c-2 -23 11 -43 28 -43 29 -1 -20 -30 -50 -30 -19 0 -30 6
-34 21 -4 11 -9 18 -12 16 -2 -3 0 -15 7 -26 14 -28 55 -27 97 2 39 26 42 36
8 29 -19 -3 -27 1 -34 19 -5 13 -10 19 -10 12z"/>
<path d="M1500 1106 c0 -2 8 -10 18 -17 15 -13 16 -12 3 4 -13 16 -21 21 -21
13z"/>
<path d="M624 1065 c-9 -14 -15 -27 -13 -30 3 -2 12 10 21 26 21 36 15 39 -8
4z"/>
<path d="M650 939 c0 -5 5 -7 10 -4 6 3 10 8 10 11 0 2 -4 4 -10 4 -5 0 -10
-5 -10 -11z"/>
<path d="M614 675 c-7 -17 3 -35 19 -35 8 0 7 3 -2 9 -8 5 -11 16 -8 25 4 9 4
16 1 16 -2 0 -7 -7 -10 -15z"/>
<path d="M1501 534 c0 -11 3 -14 6 -6 3 7 2 16 -1 19 -3 4 -6 -2 -5 -13z"/>
<path d="M1520 531 c0 -6 4 -13 10 -16 6 -3 7 1 4 9 -7 18 -14 21 -14 7z"/>
<path d="M1465 428 c3 -15 1 -29 -4 -33 -5 -3 -12 5 -14 17 -4 21 -4 20 -6 -3
0 -16 5 -29 14 -33 10 -3 15 1 15 11 0 14 3 14 23 -3 22 -19 22 -19 5 1 -9 11
-22 32 -28 45 l-10 25 5 -27z"/>
<path d="M1540 446 c0 -2 8 -10 18 -17 15 -13 16 -12 3 4 -13 16 -21 21 -21
13z"/>
<path d="M853 425 c-3 -9 -3 -19 1 -22 3 -4 6 1 6 10 0 8 6 18 13 20 9 4 9 6
-1 6 -7 1 -15 -6 -19 -14z"/>
<path d="M632 400 c0 -19 2 -27 5 -17 2 9 2 25 0 35 -3 9 -5 1 -5 -18z"/>
<path d="M1608 393 c6 -2 18 -2 25 0 6 3 1 5 -13 5 -14 0 -19 -2 -12 -5z"/>
<path d="M1801 310 c0 -15 -4 -30 -8 -36 -5 -5 -2 -4 5 2 8 6 12 22 9 35 -4
24 -4 24 -6 -1z"/>
<path d="M1730 295 c0 -20 5 -25 23 -24 19 1 19 2 3 6 -11 3 -14 8 -9 12 7 4
6 11 -3 19 -12 11 -14 9 -14 -13z"/>
<path d="M481 294 c0 -11 3 -14 6 -6 3 7 2 16 -1 19 -3 4 -6 -2 -5 -13z"/>
<path d="M1664 303 c4 -7 2 -13 -3 -13 -6 0 -11 -8 -11 -17 0 -14 2 -15 9 -4
7 11 9 11 14 0 3 -8 5 -4 3 8 -1 12 -6 26 -11 30 -4 5 -5 2 -1 -4z"/>
<path d="M528 265 c5 -40 22 -48 22 -10 0 14 0 28 1 33 0 4 -6 8 -14 10 -9 2
-12 -7 -9 -33z"/>
<path d="M1560 292 c0 -6 9 -16 20 -22 16 -9 22 -8 26 5 4 9 4 19 0 22 -3 4
-6 -2 -6 -12 0 -17 -1 -17 -20 0 -11 10 -20 13 -20 7z"/>
<path d="M1706 285 c-9 -26 -7 -32 5 -12 6 10 9 21 6 23 -2 3 -7 -2 -11 -11z"/>
<path d="M564 276 c-3 -9 -4 -25 -1 -36 4 -14 0 -20 -11 -21 -10 0 -12 -3 -5
-5 24 -10 54 16 51 43 -3 31 -25 42 -34 19z m26 -23 c-1 -24 -2 -26 -11 -10
-5 9 -7 22 -4 27 10 17 15 11 15 -17z"/>
<path d="M640 267 c0 -8 8 -18 18 -22 16 -7 15 -8 -3 -15 -16 -7 -17 -9 -3 -9
26 -1 28 12 7 38 -13 16 -19 19 -19 8z"/>
<path d="M686 272 c7 -4 14 -18 16 -32 3 -23 4 -22 9 8 5 27 3 32 -15 32 -13
0 -17 -3 -10 -8z"/>
<path d="M731 248 c2 -30 2 -31 6 -5 2 15 9 27 15 27 5 0 8 -6 5 -13 -3 -8 -1
-20 4 -28 5 -9 7 -4 6 16 -2 19 -9 31 -20 33 -14 3 -17 -3 -16 -30z"/>
<path d="M792 250 c0 -19 2 -27 5 -17 2 9 2 25 0 35 -3 9 -5 1 -5 -18z"/>
<path d="M815 255 c7 -33 12 -41 21 -33 3 4 -2 19 -11 35 l-16 28 6 -30z"/>
<path d="M841 264 c0 -11 3 -14 6 -6 3 7 2 16 -1 19 -3 4 -6 -2 -5 -13z"/>
<path d="M860 249 c0 -27 2 -29 15 -15 17 17 20 30 5 21 -5 -3 -10 -2 -10 4 0
5 6 12 13 14 7 3 5 6 -5 6 -14 1 -18 -7 -18 -30z"/>
<path d="M492 234 c10 -10 20 -16 22 -13 3 3 -5 11 -17 18 -21 13 -21 12 -5
-5z"/>
<path d="M608 203 c6 -2 18 -2 25 0 6 3 1 5 -13 5 -14 0 -19 -2 -12 -5z"/>
<path d="M996 192 c7 -4 14 -18 17 -32 l4 -25 2 27 c0 14 7 29 14 31 6 3 -1 6
-18 6 -16 0 -25 -3 -19 -7z"/>
<path d="M1058 192 c8 -5 12 -20 10 -33 l-5 -24 -11 25 c-6 14 -11 18 -11 10
-1 -26 17 -46 29 -34 16 16 9 56 -10 61 -12 4 -12 3 -2 -5z"/>
<path d="M1311 169 c0 -26 2 -30 8 -14 8 19 8 19 19 0 6 -11 13 -17 16 -14 3
2 -6 18 -19 33 l-25 29 1 -34z"/>
<path d="M1212 160 c0 -19 2 -27 5 -17 2 9 2 25 0 35 -3 9 -5 1 -5 -18z"/>
<path d="M1261 163 c-1 -25 3 -33 17 -33 11 0 13 3 6 8 -7 4 -14 18 -17 32 -4
21 -4 20 -6 -7z"/>
<path d="M1165 159 c11 -13 21 -26 22 -28 2 -2 3 3 3 12 0 9 -10 22 -22 28
l-23 12 20 -24z"/>
<path d="M1410 144 c-17 -9 -20 -14 -9 -14 9 0 22 7 29 15 15 18 13 18 -20 -1z"/>
<path d="M928 133 c7 -3 16 -2 19 1 4 3 -2 6 -13 5 -11 0 -14 -3 -6 -6z"/>
<path d="M968 123 c7 -3 16 -2 19 1 4 3 -2 6 -13 5 -11 0 -14 -3 -6 -6z"/>
<path d="M1033 113 c9 -2 25 -2 35 0 9 3 1 5 -18 5 -19 0 -27 -2 -17 -5z"/>
</g>
</svg>
